<svg width="453" height="900" viewBox="0 0 453 900" fill="none" xmlns="http://www.w3.org/2000/svg" xmlns:xlink="http://www.w3.org/1999/xlink">
<g id="Frame 1" clip-path="url(#clip0_22_2)">
<rect width="453" height="900" fill="white"/>
<g id="Rectangle 1">
<g id="Rectangle 1_2">
<mask id="path-1-inside-1_22_2" fill="white">
<path d="M0 0H453V900H0V0Z"/>
</mask>
<path d="M0 0H453V900H0V0Z" fill="#FFF2CC"/>
<path d="M453 850H0V950H453V850Z" fill="url(#paint0_linear_22_2)" mask="url(#path-1-inside-1_22_2)"/>
</g>
</g>
<text id="Article" fill="black" xml:space="preserve" style="white-space: pre" font-family="Inter" font-size="25" font-style="italic" font-weight="200" letter-spacing="0em"><tspan x="97" y="59.0909">Популярність криптовалюти</tspan></text>
<rect id="Rectangle 2" x="169" y="127" width="224" height="170" rx="16" fill="url(#pattern0)"/>
<rect id="Rectangle 4" x="26" y="382" width="199.655" height="197" rx="98.5" fill="url(#pattern1)"/>
<rect id="Rectangle 5" x="180" y="680" width="265" height="164" fill="url(#pattern2)"/>
<rect id="Rectangle 6" x="4" y="9" width="82" height="82" fill="url(#pattern3)"/>
<rect id="Rectangle 7" x="26" y="148" width="106" height="97" fill="url(#pattern4)"/>
<rect id="Rectangle 9" x="237" y="394" width="173" height="167" fill="url(#pattern5)"/>
<rect id="Rectangle 8" x="58" y="835" width="89" height="65" fill="url(#pattern6)"/>
<text id="Where" fill="black" xml:space="preserve" style="white-space: pre" font-family="Inter" font-size="18" font-style="italic" font-weight="200" letter-spacing="0em"><tspan x="14" y="655.545">Історія капіталізації криптовалюти</tspan></text>
<text id="History" fill="black" xml:space="preserve" style="white-space: pre" font-family="Inter" font-size="18" font-style="italic" font-weight="200" letter-spacing="0em"><tspan x="78" y="108.545">Поділ капіталу по криптовалютам</tspan></text>
<text id="Diagram" fill="black" xml:space="preserve" style="white-space: pre" font-family="Inter" font-size="18" font-style="italic" font-weight="200" letter-spacing="0em"><tspan x="81" y="376.545">Історія капіталізації криптовалюти</tspan></text>
<text id="text" fill="black" xml:space="preserve" style="white-space: pre" font-family="Inter" font-size="9" font-style="italic" font-weight="200" letter-spacing="0em">
<tspan x="7" y="718.773">Дані взяті за 2021 рік</tspan>
<tspan x="7" y="729.773">За дані брались активність p2p </tspan>
<tspan x="7" y="740.773">торгівлі. Індекс позначає відношення </tspan>
<tspan x="7" y="751.773">активності в порівнянні з іншими </tspan>
<tspan x="7" y="762.773">країнами. Найбільш активна країна </tspan>
<tspan x="7" y="773.773">(Таїланд) має індекс 1, найменш </tspan>
<tspan x="7" y="784.773">активні країни мають індекс 0, країни </tspan>
<tspan x="7" y="795.773">з відсутністю даних не мають індекс і </tspan>
<tspan x="7" y="806.773">позначаються сірим кольором.</tspan></text>
</g>
<defs>
<pattern id="pattern0" patternContentUnits="objectBoundingBox" width="1" height="1">
<use xlink:href="#image0_22_2" transform="matrix(0.00107649 0 0 0.00141844 -0.00326114 0)"/>
</pattern>
<pattern id="pattern1" patternContentUnits="objectBoundingBox" width="1" height="1">
<use xlink:href="#image1_22_2" transform="scale(0.00265957 0.00269542)"/>
</pattern>
<pattern id="pattern2" patternContentUnits="objectBoundingBox" width="1" height="1">
<use xlink:href="#image2_22_2" transform="matrix(0.000274808 0 0 0.00044405 -0.0628071 0)"/>
</pattern>
<pattern id="pattern3" patternContentUnits="objectBoundingBox" width="1" height="1">
<use xlink:href="#image3_22_2" transform="scale(0.0078125)"/>
</pattern>
<pattern id="pattern4" patternContentUnits="objectBoundingBox" width="1" height="1">
<use xlink:href="#image4_22_2" transform="matrix(0.000694444 0 0 0.000758877 0 -0.0463918)"/>
</pattern>
<pattern id="pattern5" patternContentUnits="objectBoundingBox" width="1" height="1">
<use xlink:href="#image5_22_2" transform="matrix(0.00301662 0 0 0.003125 -0.223988 0)"/>
</pattern>
<pattern id="pattern6" patternContentUnits="objectBoundingBox" width="1" height="1">
<use xlink:href="#image6_22_2" transform="matrix(0.000912921 0 0 0.00125 -0.00210674 0)"/>
</pattern>
<linearGradient id="paint0_linear_22_2" x1="226.5" y1="0" x2="226.5" y2="900" gradientUnits="userSpaceOnUse">
<stop stop-color="#FF0000" stop-opacity="0"/>
<stop offset="0.94375" stop-color="#FF0000" stop-opacity="0"/>
<stop offset="1" stop-color="#FF0000"/>
</linearGradient>
<clipPath id="clip0_22_2">
<rect width="453" height="900" fill="white"/>
</clipPath>
<image id="image0_22_2" data-name="image4.png" width="935" height="705" xlink:href="image4.png"/>
<image id="image1_22_2" data-name="info6.png" width="376" height="371" xlink:href="info6.png"/>
<image id="image2_22_2" data-name="image7.png" width="4096" height="2000" xlink:href="image7.png"/>
<image id="image3_22_2" data-name="image.png" width="128" height="128" xlink:href="image1.gif"/>
<image id="image4_22_2" data-name="image.png" width="1440" height="1440" xlink:href="image5.png"/>
<image id="image5_22_2" data-name="image6.png" width="480" height="320" xlink:href="image6.gif"/>
<image id="image6_22_2" data-name="image.png" width="1100" height="800" xlink:href="image9.png"/>
</defs>
</svg>
